HIERARCHY
ROOT Hips
{
	OFFSET 0.000000 89.005402 0.000000
	CHANNELS 6 Xposition Yposition Zposition Xrotation Yrotation Zrotation
	JOINT Spine
	{
		OFFSET 0.116900 10.681000 0.373400
		CHANNELS 3 Xrotation Yrotation Zrotation
		JOINT Spine1
		{
			OFFSET 0.000000 13.840401 0.053500
			CHANNELS 3 Xrotation Yrotation Zrotation
			JOINT Spine2
			{
				OFFSET 0.000000 14.712700 -0.366200
				CHANNELS 3 Xrotation Yrotation Zrotation
				JOINT Neck
				{
					OFFSET 0.000000 35.415497 -3.314200
					CHANNELS 3 Xrotation Yrotation Zrotation
					JOINT Head
					{
						OFFSET 0.000000 16.899200 1.218300
						CHANNELS 3 Xrotation Yrotation Zrotation
						JOINT HeadTop_End
						{
							OFFSET 0.000000 22.206207 2.192500
							CHANNELS 3 Xrotation Yrotation Zrotation
							End Site
							{
								OFFSET 0.000000 22.314178 0.000000
							}
						}
					}
				}
				JOINT LeftShoulder
				{
					OFFSET 12.896400 26.716293 -4.548400
					CHANNELS 3 Xrotation Yrotation Zrotation
					JOINT LeftArm
					{
						OFFSET 19.027000 -4.857010 -1.718400
						CHANNELS 3 Xrotation Yrotation Zrotation
						JOINT LeftForeArm
						{
							OFFSET 24.179897 0.000000 0.000000
							CHANNELS 3 Xrotation Yrotation Zrotation
							JOINT LeftHand
							{
								OFFSET 27.156403 0.000000 0.000000
								CHANNELS 3 Xrotation Yrotation Zrotation
								JOINT LeftHandIndex1
								{
									OFFSET 16.441200 0.000000 0.000000
									CHANNELS 3 Xrotation Yrotation Zrotation
									JOINT LeftHandIndex2
									{
										OFFSET 4.821899 0.000000 0.000000
										CHANNELS 3 Xrotation Yrotation Zrotation
										JOINT LeftHandIndex3
										{
											OFFSET 6.386497 0.000000 0.000000
											CHANNELS 3 Xrotation Yrotation Zrotation
											JOINT LeftHandIndex4
											{
												OFFSET 5.188988 0.000000 0.000000
												CHANNELS 3 Xrotation Yrotation Zrotation
												End Site
												{
													OFFSET -0.178703 5.185913 0.000177
												}
											}
										}
									}
								}
								JOINT LeftHandThumb1
								{
									OFFSET 6.534897 -5.032593 5.900300
									CHANNELS 3 Xrotation Yrotation Zrotation
									JOINT LeftHandThumb2
									{
										OFFSET 3.818176 -2.204422 2.204423
										CHANNELS 3 Xrotation Yrotation Zrotation
										JOINT LeftHandThumb3
										{
											OFFSET 3.252098 -1.877594 1.877601
											CHANNELS 3 Xrotation Yrotation Zrotation
											JOINT LeftHandThumb4
											{
												OFFSET 5.251778 -3.032120 3.032117
												CHANNELS 3 Xrotation Yrotation Zrotation
												End Site
												{
													OFFSET 0.000023 6.780014 0.000000
												}
											}
										}
									}
								}
							}
						}
					}
				}
				JOINT RightShoulder
				{
					OFFSET -12.896300 26.716293 -4.548400
					CHANNELS 3 Xrotation Yrotation Zrotation
					JOINT RightArm
					{
						OFFSET -19.027000 -4.857010 -1.718400
						CHANNELS 3 Xrotation Yrotation Zrotation
						JOINT RightForeArm
						{
							OFFSET -24.179897 0.000000 0.000000
							CHANNELS 3 Xrotation Yrotation Zrotation
							JOINT RightHand
							{
								OFFSET -27.156403 0.000000 0.000000
								CHANNELS 3 Xrotation Yrotation Zrotation
								JOINT RightHandThumb1
								{
									OFFSET -6.591202 -4.852203 5.988100
									CHANNELS 3 Xrotation Yrotation Zrotation
									JOINT RightHandThumb2
									{
										OFFSET -3.818176 -2.204422 2.204423
										CHANNELS 3 Xrotation Yrotation Zrotation
										JOINT RightHandThumb3
										{
											OFFSET -3.252098 -1.877594 1.877601
											CHANNELS 3 Xrotation Yrotation Zrotation
											JOINT RightHandThumb4
											{
												OFFSET -5.251778 -3.032120 3.032117
												CHANNELS 3 Xrotation Yrotation Zrotation
												End Site
												{
													OFFSET -0.000023 6.780014 0.000000
												}
											}
										}
									}
								}
								JOINT RightHandIndex1
								{
									OFFSET -16.029404 0.000000 0.000000
									CHANNELS 3 Xrotation Yrotation Zrotation
									JOINT RightHandIndex2
									{
										OFFSET -5.213303 0.000000 0.000000
										CHANNELS 3 Xrotation Yrotation Zrotation
										JOINT RightHandIndex3
										{
											OFFSET -6.386528 0.000000 0.000000
											CHANNELS 3 Xrotation Yrotation Zrotation
											JOINT RightHandIndex4
											{
												OFFSET -5.189026 0.000000 0.000000
												CHANNELS 3 Xrotation Yrotation Zrotation
												End Site
												{
													OFFSET 0.236702 5.183624 0.001972
												}
											}
										}
									}
								}
							}
						}
					}
				}
			}
		}
	}
	JOINT LeftUpLeg
	{
		OFFSET 14.073000 -7.904099 -1.463000
		CHANNELS 3 Xrotation Yrotation Zrotation
		JOINT LeftLeg
		{
			OFFSET -0.109806 -34.073280 4.093200
			CHANNELS 3 Xrotation Yrotation Zrotation
			JOINT LeftFoot
			{
				OFFSET 0.109806 -29.899420 -6.319000
				CHANNELS 3 Xrotation Yrotation Zrotation
				JOINT LeftToeBase
				{
					OFFSET 1.551100 -14.988700 20.535801
					CHANNELS 3 Xrotation Yrotation Zrotation
					JOINT LeftToe_End
					{
						OFFSET 0.221200 0.570800 13.248301
						CHANNELS 3 Xrotation Yrotation Zrotation
						End Site
						{
							OFFSET 0.000000 13.262435 0.000000
						}
					}
				}
			}
		}
	}
	JOINT RightUpLeg
	{
		OFFSET -13.839300 -7.904099 -1.463000
		CHANNELS 3 Xrotation Yrotation Zrotation
		JOINT RightLeg
		{
			OFFSET 0.109694 -34.073219 4.093300
			CHANNELS 3 Xrotation Yrotation Zrotation
			JOINT RightFoot
			{
				OFFSET -0.109694 -29.899384 -6.319200
				CHANNELS 3 Xrotation Yrotation Zrotation
				JOINT RightToeBase
				{
					OFFSET -1.551100 -14.988700 20.535801
					CHANNELS 3 Xrotation Yrotation Zrotation
					JOINT RightToe_End
					{
						OFFSET -0.221200 0.570900 13.248299
						CHANNELS 3 Xrotation Yrotation Zrotation
						End Site
						{
							OFFSET 0.000000 13.262440 0.000000
						}
					}
				}
			}
		}
	}
}
MOTION
Frames: 7
Frame Time: 0.033333
82.712975 75.689392 7.137234 30.354894 -18.215235 15.051066 2.457711 -0.293569 -0.127381 4.905498 -1.076127 -0.993277 4.905499 -1.076128 -0.993275 -6.703192 0.586583 1.352880 -46.950502 13.636145 -5.894075 -0.000000 -0.000001 0.000000 0.574519 -1.926709 -8.633192 -19.940343 -15.828750 -63.577006 0.000002 -59.882365 -0.000014 -25.701242 -21.451713 -10.390388 0.054456 0.866006 -7.195440 0.446815 2.444336 -20.715381 0.054447 0.866008 -7.195447 -0.000003 0.000000 -0.000000 -1.540040 3.690192 6.142361 9.961770 28.919229 4.262959 5.013952 22.464852 7.124510 -0.000002 0.000001 0.000000 0.531140 6.623947 11.739261 -34.348352 -14.128601 64.759496 -0.000078 82.155578 0.000070 -7.216044 -7.525595 6.520481 -1.461135 -16.849377 -13.707146 4.204311 -15.957359 1.347744 0.075660 -6.415187 -4.609862 -0.000001 -0.000003 0.000003 0.034052 -0.688597 5.659833 0.219853 -1.738050 14.417771 0.034043 -0.688600 5.659821 -0.000000 -0.000002 -0.000001 -51.814891 4.011938 7.287179 50.501404 3.197135 -0.757268 -24.001935 13.286562 -13.341721 -3.010307 0.000000 -0.000003 0.000000 -0.000000 0.000000 -62.823984 -1.160155 -17.436636 57.409140 -0.908439 1.460263 -22.586532 -1.023723 1.958544 -3.967177 -0.000016 -0.000005 0.000000 0.000000 -0.000000 
82.776009 75.677658 7.209404 30.482055 -18.125492 15.033456 2.400622 -0.264826 -0.108010 4.792115 -1.015386 -0.953007 4.792108 -1.015378 -0.953013 -6.679784 0.572230 1.381752 -46.788708 13.485694 -6.053796 -0.000000 -0.000001 -0.000000 0.577879 -2.009921 -8.839940 -19.626999 -15.689771 -63.653463 -0.000015 -60.637805 -0.000028 -24.458923 -21.092282 -10.492321 0.054461 0.866000 -7.195436 0.446835 2.444325 -20.715387 0.054432 0.866006 -7.195448 0.000003 0.000001 0.000000 -1.540025 3.690179 6.142364 10.288074 30.329448 4.515549 5.289613 23.871559 7.447366 -0.000003 0.000000 -0.000001 0.526796 6.571392 11.938067 -33.706290 -14.271932 64.686440 0.000320 82.975788 -0.000328 -9.786357 -8.072824 5.942169 -1.559951 -17.894587 -14.310981 4.191475 -16.536327 1.480656 0.160718 -6.935415 -4.807813 0.000002 -0.000001 0.000000 0.034050 -0.688596 5.659829 0.219842 -1.738051 14.417766 0.034042 -0.688597 5.659825 0.000000 -0.000001 -0.000001 -51.986769 3.970167 7.267230 50.600466 3.111800 -0.779789 -24.060265 13.519709 -13.399866 -2.832920 -0.000003 0.000002 0.000000 -0.000000 -0.000000 -62.902450 -1.090022 -17.416224 57.432738 -0.844748 1.482291 -22.611242 -1.322533 1.862830 -3.761951 -0.000000 0.000006 0.000000 -0.000002 -0.000000 
82.836945 75.659813 7.291641 30.801933 -17.858303 15.052880 2.277593 -0.219491 -0.135580 4.546855 -0.926634 -1.006598 4.546856 -0.926633 -1.006590 -6.659546 0.530905 1.488085 -46.467662 13.052114 -6.297940 -0.000001 -0.000001 -0.000001 0.576143 -1.927045 -8.746454 -19.318208 -15.317611 -63.993162 -0.000001 -61.809380 -0.000009 -20.200296 -19.982567 -11.534459 0.054451 0.866005 -7.195448 0.446834 2.444337 -20.715380 0.054458 0.865998 -7.195457 -0.000002 0.000002 0.000001 -1.540045 3.690192 6.142352 10.513608 31.333804 4.698303 5.477507 24.873394 7.680265 -0.000001 -0.000001 -0.000000 0.515723 6.562044 12.343510 -33.158823 -14.173912 64.348230 0.000202 83.757155 -0.000204 -11.370101 -8.085772 5.771626 -1.619642 -18.439026 -14.629415 4.186114 -16.838252 1.550538 0.203824 -7.206848 -4.911064 -0.000002 -0.000000 -0.000001 0.034021 -0.688585 5.659836 0.219869 -1.738056 14.417768 0.034047 -0.688577 5.659825 -0.000002 -0.000003 -0.000001 -52.370571 3.964177 7.162889 50.529879 3.100609 -0.777248 -24.009100 13.404583 -13.201593 -2.864846 0.000001 0.000000 0.000000 0.000000 -0.000000 -63.126692 -0.959344 -17.443538 57.405636 -0.797588 1.496081 -22.628582 -1.715242 1.898976 -3.768300 -0.000006 -0.000001 -0.000000 -0.000000 -0.000000 
82.929489 75.646744 7.378853 31.235657 -17.701311 15.105534 2.163104 -0.207760 -0.106308 4.318522 -0.898405 -0.934081 4.318524 -0.898406 -0.934077 -6.653226 0.520985 1.533110 -46.184117 13.015892 -6.498467 0.000001 -0.000000 -0.000000 0.576624 -1.885673 -8.820394 -19.101652 -13.932214 -64.282879 0.000002 -63.752316 -0.000003 -14.900794 -19.061243 -13.059384 0.050637 0.835346 -6.939332 0.435944 2.415420 -20.458858 0.050658 0.835329 -6.939330 0.000003 -0.000001 -0.000002 -1.540041 3.690188 6.142346 10.654631 31.975387 4.816357 5.593773 25.513422 7.830475 -0.000001 0.000000 -0.000001 0.525398 6.338179 12.179300 -32.940104 -13.192691 64.034895 0.000357 84.280552 -0.000375 -12.402216 -7.968824 5.577187 -1.635691 -18.577397 -14.710798 4.184882 -16.915037 1.568368 0.214665 -7.275891 -4.937319 0.000000 -0.000000 -0.000002 0.034039 -0.688593 5.659838 0.219862 -1.738039 14.417758 0.034037 -0.688591 5.659836 0.000001 -0.000002 -0.000000 -52.786690 3.918561 7.021174 50.386025 3.164474 -0.755359 -23.951534 13.267362 -12.753749 -3.063504 -0.000002 -0.000001 0.000000 -0.000000 0.000000 -63.418102 -0.851232 -17.455365 57.218059 -0.781948 1.491115 -22.520910 -1.911042 2.100413 -3.914852 0.000006 -0.000004 0.000000 -0.000001 -0.000000 
83.064972 75.648102 7.449734 31.549607 -17.903130 15.455357 2.144134 -0.219089 -0.093924 4.280494 -0.920342 -0.901217 4.280504 -0.920349 -0.901218 -6.642789 0.538747 1.498559 -46.233079 13.234596 -6.396616 -0.000001 -0.000000 0.000000 0.577194 -1.849142 -8.872435 -18.902135 -12.918103 -64.478024 0.000023 -65.731924 0.000011 -10.484818 -18.581560 -14.183222 0.046020 0.796293 -6.613514 0.422305 2.378538 -20.132548 0.046006 0.796293 -6.613522 -0.000000 -0.000002 -0.000001 -1.540034 3.690183 6.142360 10.724573 32.297721 4.876120 5.651067 25.834958 7.906400 -0.000003 0.000001 -0.000001 0.545336 6.068833 11.561649 -32.897900 -11.907449 63.685626 0.000763 84.482166 -0.000768 -13.831258 -7.859568 5.201462 -1.615603 -18.403794 -14.608713 4.186427 -16.818711 1.545994 0.201069 -7.189267 -4.904378 -0.000002 0.000001 -0.000001 0.034040 -0.688597 5.659840 0.219860 -1.738041 14.417768 0.034027 -0.688598 5.659851 -0.000000 0.000001 0.000001 -52.817457 3.945153 6.657504 50.149766 3.199265 -0.740530 -23.953945 13.627558 -12.229550 -3.178928 -0.000003 0.000002 -0.000000 0.000000 0.000000 -63.690906 -0.482931 -17.579312 57.003369 -0.766016 1.478865 -22.254981 -1.769841 2.458904 -4.084690 -0.000023 0.000002 -0.000000 0.000001 -0.000000 
83.219688 75.649284 7.522066 31.809052 -18.358170 16.119115 2.191739 -0.234271 -0.178240 4.374646 -0.958167 -1.069914 4.374656 -0.958158 -1.069919 -6.645930 0.541083 1.486244 -46.446475 13.195661 -6.050967 0.000001 0.000000 -0.000000 0.567078 -1.572000 -8.362255 -18.855471 -12.927324 -65.169553 -0.000006 -67.139626 -0.000016 -8.029319 -18.022105 -14.491722 0.040811 0.750034 -6.227644 0.406415 2.334770 -19.746096 0.040791 0.750032 -6.227652 -0.000000 -0.000001 -0.000000 -1.540028 3.690184 6.142361 10.734698 32.344665 4.884854 5.659336 25.881759 7.917456 0.000002 -0.000002 -0.000001 0.557018 5.993318 11.085204 -32.926030 -10.351574 63.356350 0.000393 83.656259 -0.000402 -15.383376 -7.728643 4.748859 -1.572330 -18.011863 -14.379326 4.190256 -16.601345 1.495660 0.170085 -6.993847 -4.830065 -0.000001 0.000000 -0.000001 0.034040 -0.688600 5.659847 0.219858 -1.738043 14.417780 0.034035 -0.688594 5.659834 0.000001 0.000001 0.000000 -52.580439 4.030647 6.089083 49.852536 3.132380 -0.750511 -24.028032 14.422204 -11.739991 -3.096575 0.000000 -0.000003 -0.000000 0.000000 -0.000000 -63.980151 0.218289 -17.809921 56.808910 -0.711987 1.472686 -21.895331 -1.470868 2.973716 -4.143271 0.000005 -0.000001 -0.000000 -0.000000 0.000001 
83.356888 75.590637 7.671469 32.046244 -18.687382 16.590075 2.154101 -0.245261 -0.237832 4.298705 -0.977978 -1.182194 4.298701 -0.977977 -1.182197 -6.613127 0.523641 1.499200 -46.097616 12.972840 -6.215738 -0.000000 0.000000 -0.000000 0.563896 -1.533684 -8.241620 -18.435896 -13.322036 -65.533397 -0.000044 -68.849536 -0.000050 -7.424376 -17.017748 -14.372156 0.035283 0.697675 -5.791335 0.388802 2.285157 -19.309124 0.035293 0.697671 -5.791326 0.000001 -0.000000 -0.000001 -1.540050 3.690185 6.142332 10.694800 32.160099 4.850580 5.626690 25.697675 7.873950 -0.000003 -0.000001 -0.000002 0.565586 5.855588 10.766359 -32.922410 -8.561352 63.095737 -0.000039 82.659257 0.000060 -16.700531 -7.541545 4.277004 -1.519780 -17.495282 -14.079174 4.196009 -16.315044 1.429680 0.128579 -6.736540 -4.732138 -0.000003 0.000001 0.000001 0.034021 -0.688600 5.659847 0.219865 -1.738049 14.417763 0.034039 -0.688590 5.659830 0.000000 0.000001 0.000000 -52.479789 4.083727 5.694535 49.814776 3.026879 -0.780168 -24.270357 14.935641 -11.288348 -3.109940 -0.000000 0.000002 0.000000 0.000000 -0.000000 -64.137867 0.938345 -17.930611 56.694856 -0.631948 1.479503 -21.685244 -1.487557 3.616954 -4.017700 0.000003 0.000004 0.000001 -0.000000 -0.000000 
